# xmcd
#
# Track frame offsets:
#	150
#	14129
#	26491
#	39902
#	53011
#	65912
#	77566
#	90320
#	102053
#	114385
#	127808
#	140796
#	154465
#	165418
#	175649
#
# Disc length: 2517 seconds
#
# Revision: 1
# Processed by: cddbd v1.5.2PL0 Copyright (c) Steve Scherf et al.
# Submitted via: audiograbber 1.83.01
#
DISCID=b809d30f
DTITLE=Howlin' Wolf - Blues From Hell [CD1]
DYEAR=2011
DGENRE=Blues
TTITLE0=Smokestack Lightnin'
TTITLE1=Spoonful
TTITLE2=The Wolf Is At Your Door
TTITLE3=Evil (Is Going On)
TTITLE4=I Asked For Water (She Gave Me Gasoline)
TTITLE5=Poor Boy
TTITLE6=Moanin' For My Baby
TTITLE7=I Have  A Little Girl
TTITLE8=I Better Go Now
TTITLE9=My Baby Stole Off
TTITLE10=No Place To Go
TTITLE11=My Life
TTITLE12=I Didn't Know
TTITLE13=I've Been Abused
TTITLE14=Baby How Long?
EXTD=
EXTT0=
EXTT1=
EXTT2=
EXTT3=
EXTT4=
EXTT5=
EXTT6=
EXTT7=
EXTT8=
EXTT9=
EXTT10=
EXTT11=
EXTT12=
EXTT13=
EXTT14=
PLAYORDER=
